# xmcd CD database file
#
# Track frame offsets:
#	150
#	13453
#	25573
#	36745
#	54060
#	69358
#	83838
#	101585
#	114290
#	135368
#	147395
#	161468
#	175723
#	191900
#
# Disc length: 2740 seconds
#
# Revision: 0
# Processed by: cddbd v1.5PL3 Copyright (c) Steve Scherf et al.
# Submitted via: CDex 1.50
#
DISCID=b40ab20e
DTITLE=Al Rapone and The Zydeco Express - Cajun Creole Music
DYEAR=1982
DGENRE=Blues
TTITLE0=Fu Ils Sa
TTITLE1=It Be's That Way Sometimes
TTITLE2=La Clé
TTITLE3=Just Par Que
TTITLE4=Zydeco Express
TTITLE5=Ma
TTITLE6=Allons A Grand Mamou
TTITLE7=Sa Fait Moi Du Mal
TTITLE8=Troubled Woman Blues
TTITLE9=L'il By L'il
TTITLE10=Bayou Polka
TTITLE11=Good Ole Cajun Music
TTITLE12=Non, C'est Par la
TTITLE13=Allons A La Louisiana
EXTD=YEAR: 1982
EXTT0=
EXTT1=
EXTT2=
EXTT3=
EXTT4=
EXTT5=
EXTT6=
EXTT7=
EXTT8=
EXTT9=
EXTT10=
EXTT11=
EXTT12=
EXTT13=
PLAYORDER=
